/* XPM */
static char *[] = {
/* columns rows colors chars-per-pixel */
"16 16 119 2",
"   c black",
".  c #292929292929",
"X  c #2D2D2D2D2D2D",
"o  c #2F2F2F2F2F2F",
"O  c #303030303030",
"+  c #323232323232",
"@  c #343434343434",
"#  c #363636363636",
"$  c #373737373737",
"%  c #383838383838",
"&  c #3A3A3A3A3A3A",
"*  c #3C3C3C3C3C3C",
"=  c #3E3E3E3E3E3E",
"-  c #48482E2E2C2C",
";  c #505034343131",
":  c #414141414141",
">  c #434343434343",
",  c #454546464646",
"<  c #4A4A4A4A4A4A",
"1  c #4C4C4C4C4C4C",
"2  c #4E4E4E4E4E4E",
"3  c #515144444343",
"4  c #57574A4A4444",
"5  c #585847474343",
"6  c #5F5F52524C4C",
"7  c #525252525252",
"8  c #545454545454",
"9  c #545455555555",
"0  c #575758585858",
"q  c #585858585858",
"w  c #5A5A5A5A5A5A",
"e  c #5B5B5B5B5B5B",
"r  c #5C5C5F5F6161",
"t  c #626262626262",
"y  c #656564646565",
"u  c #656565656565",
"i  c #666666666666",
"p  c #666668686868",
"a  c #66666B6B6B6B",
"s  c #68686A6A6A6A",
"d  c #6A6A6A6A6A6A",
"f  c #717171717171",
"g  c #757575757575",
"h  c #767676767676",
"j  c #777777777777",
"k  c #7A7A7A7A7A7A",
"l  c #7D7D7C7C7D7D",
"z  c #858545453434",
"x  c #87875E5E3939",
"c  c #939346462E2E",
"v  c #AFAF48482F2F",
"b  c #AFAF5F5F2929",
"n  c #96965E5E4444",
"m  c #979766665252",
"M  c #8C8C60606262",
"N  c #818177777878",
"B  c #969679797272",
"V  c #A0A051514747",
"C  c #A5A55C5C4E4E",
"Z  c #AAAA66664444",
"A  c #ACAC6D6D4444",
"S  c #ACAC74745F5F",
"D  c #A1A172726C6C",
"F  c #A6A67A7A6E6E",
"G  c #BFBF7E7E6262",
"H  c #C1C165653232",
"J  c #80807F7F8080",
"K  c #BCBC82825A5A",
"L  c #B2B298985B5B",
"P  c #E1E1A1A13434",
"I  c #E2E2B0B03939",
"U  c #E4E4B0B03E3E",
"Y  c #CDCD81815050",
"T  c #D0D08B8B6060",
"R  c #D0D099997878",
"E  c #DFDFBEBE6161",
"W  c #E6E6BDBD4545",
"Q  c #EAEAC1C15151",
"!  c #F6F6D4D45A5A",
"~  c #EAEAD4D47575",
"^  c #F4F4D1D16060",
"/  c #F6F6DADA6565",
"(  c #FDFDEFEF7E7E",
")  c #808081818181",
"_  c #848484848484",
"`  c #858585858585",
"'  c #878787878787",
"]  c #888888888888",
"[  c #8B8B8B8B8B8B",
"{  c #939388888888",
"}  c #9C9C89898686",
"|  c #909090909090",
" . c #929292929292",
".. c #949494949494",
"X. c #9A9A9A9A9A9A",
"o. c #9E9E9E9E9E9E",
"O. c #AAAA98989999",
"+. c #A0A09F9FA0A0",
"@. c #A2A2A2A2A2A2",
"#. c #AAAAA9A9AAAA",
"$. c #AEAEAEAEAEAE",
"%. c #BDBDBDBDBDBD",
"&. c #BFBFBFBFBFBF",
"*. c #C2C2C2C2C2C2",
"=. c #C3C3C2C2C3C3",
"-. c #C9C9C8C8C8C8",
";. c #CBCBCBCBCBCB",
":. c #CECECECECECE",
">. c #D2D2D2D2D2D2",
",. c #D7D7D7D7D7D7",
"<. c #D9D9D9D9D9D9",
"1. c #E4E4E4E4E4E4",
"2. c #E6E6E6E6E6E6",
"3. c #E7E7E7E7E7E7",
"4. c #EEEEEBEBEBEB",
"5. c #EEEEEEEEEEEE",
"6. c #F1F1F1F1F1F1",
"7. c WhiteSmoke",
"8. c #F9F9F9F9F9F9",
/* pixels */
"                                ",
"                                ",
"                    @.          ",
"                >.o. .*.        ",
"              &.`  .j ] X.,.    ",
"          >.o.` k t e 0 ] j d   ",
"        &.j _ d 2 > & X 0 2 4 -.",
"    >.X.j u 7 > & X & + 6 E n :.",
"  f i e $ = & $ X 7 9 x c / D 6.",
"  s k ) = @ . $ p 5 z ( v ! G 5.",
"  M J =.#., 2 r ; ~ H ^ V A B 3.",
"    =.l =.$.3 L b W C P Z ;.6.  ",
"      =.u @.- W S I Y O.;.7.    ",
"        =. .{ U T F } 3.        ",
"            4.K m ,.8.          ",
"              R 3.              "
};
