/* XPM */
static char * ChipC_16x16_xpm[] = {
"16 16 105 2",
"  	c None",
". 	c #0000F0",
"+ 	c #0000FA",
"@ 	c #0000E1",
"# 	c #0000E9",
"$ 	c #0000FD",
"% 	c #A2A2A2",
"& 	c #000000",
"* 	c #D2D2D2",
"= 	c #9E9E9E",
"- 	c #929292",
"; 	c #C2C2C2",
"> 	c #BDBDBD",
", 	c #858585",
"' 	c #757575",
") 	c #8B8B8B",
"! 	c #9A9A9A",
"~ 	c #D9D9D9",
"{ 	c #0000F8",
"] 	c #7F7FF8",
"^ 	c #9090C0",
"/ 	c #7A7A7A",
"( 	c #626262",
"_ 	c #5B5B5B",
": 	c #575858",
"< 	c #888888",
"[ 	c #6A6A6A",
"} 	c #0000D0",
"| 	c #2323F2",
"1 	c #73739A",
"2 	c #4C4C4C",
"3 	c #434343",
"4 	c #3A3A3A",
"5 	c #2D2D2D",
"6 	c #4E4E4E",
"7 	c #574A44",
"8 	c #C9C8C8",
"9 	c #777777",
"0 	c #656565",
"a 	c #545555",
"b 	c #323232",
"c 	c #5F524C",
"d 	c #DFBE61",
"e 	c #965E44",
"f 	c #CECECE",
"g 	c #717171",
"h 	c #373737",
"i 	c #3E3E3E",
"j 	c #303030",
"k 	c #525252",
"l 	c #875E39",
"m 	c #93462E",
"n 	c #F6DA65",
"o 	c #A1726C",
"p 	c #F1F1F1",
"q 	c #666B6B",
"r 	c #3C3C3C",
"s 	c #343434",
"t 	c #292929",
"u 	c #666868",
"v 	c #584743",
"w 	c #854534",
"x 	c #FDEF7E",
"y 	c #AF482F",
"z 	c #F6D45A",
"A 	c #BF7E62",
"B 	c #EEEEEE",
"C 	c #8C6062",
"D 	c #B2985B",
"E 	c #AAA9AA",
"F 	c #454646",
"G 	c #4A4A4A",
"H 	c #5C5F61",
"I 	c #503431",
"J 	c #EAD475",
"K 	c #C16532",
"L 	c #F4D160",
"M 	c #AC6D44",
"N 	c #967972",
"O 	c #E6E6E6",
"P 	c #C3C2C3",
"Q 	c #AEAEAE",
"R 	c #514443",
"S 	c #AF5F29",
"T 	c #E6BD45",
"U 	c #A55C4E",
"V 	c #E1A134",
"W 	c #CBCBCB",
"X 	c #666666",
"Y 	c #AA9899",
"Z 	c #482E2C",
"` 	c #AC745F",
" .	c #E2B039",
"..	c #CD8150",
"+.	c #F9F9F9",
"@.	c #949494",
"#.	c #938888",
"$.	c #D08B60",
"%.	c #A67A6E",
"&.	c #9C8986",
"*.	c #E7E7E7",
"=.	c #EEEBEB",
"-.	c #BC825A",
";.	c #976652",
">.	c #D09978",
"                                ",
"      . + @ #                   ",
"    . $ $ $ $       %           ",
"    + & & # #   * = - ;         ",
"    $ & & & & > , - ' ) ! ~     ",
"    { { & ] ^ , / ( _ : < ' [   ",
"    } + $ | 1 [ 2 3 4 5 : 6 7 8 ",
"    * ! 9 0 a 3 4 5 4 b c d e f ",
"  g 0 : h i 4 h j k a l m n o p ",
"  q / 1 r s t h u v w x y z A B ",
"  C D > E F G H I J K L e M N O ",
"    ; 1 P Q R D S T U V U W p   ",
"      P X Y Z T `  ...Y W +.    ",
"        P @.#.T $.%.&.*.        ",
"            =.-.;.~ +.          ",
"              >.O               "};
