/* XPM */
static char * ChipC_32x32_xpm[] = {
"32 32 163 2",
"  	c None",
". 	c #0000F0",
"+ 	c #0000FF",
"@ 	c #0000E9",
"# 	c #0000E1",
"$ 	c #0000F8",
"% 	c #DDDDDD",
"& 	c #6A6A6A",
"* 	c #979797",
"= 	c #626262",
"- 	c #A5A5A5",
"; 	c #D2D2D2",
"> 	c #797979",
", 	c #ADAEAE",
"' 	c #929292",
") 	c #E1E1E1",
"! 	c #5C5C5C",
"~ 	c #9E9E9E",
"{ 	c #999999",
"] 	c #777777",
"^ 	c #6E6E6E",
"/ 	c #515151",
"( 	c #7C7C7C",
"_ 	c #AAA9A9",
": 	c #646464",
"< 	c #D9D9D9",
"[ 	c #595959",
"} 	c #747474",
"| 	c #717171",
"1 	c #7D7A7A",
"2 	c #575757",
"3 	c #7F7FF8",
"4 	c #3333F2",
"5 	c #6D6D6D",
"6 	c #FFFFFF",
"7 	c #686868",
"8 	c #4C4C4C",
"9 	c #454545",
"0 	c #3D3D3D",
"a 	c #353535",
"b 	c #797E7E",
"c 	c #0000D0",
"d 	c #5757F3",
"e 	c #424242",
"f 	c #3C4242",
"g 	c #292929",
"h 	c #323232",
"i 	c #CFCDCD",
"j 	c #3A3AF3",
"k 	c #5151D9",
"l 	c #4D3539",
"m 	c #393939",
"n 	c #2E2E2E",
"o 	c #AD7159",
"p 	c #C3C2C3",
"q 	c #868686",
"r 	c #373737",
"s 	c #6C7273",
"t 	c #94523A",
"u 	c #EAB636",
"v 	c #B25621",
"w 	c #523D42",
"x 	c #8C8D8D",
"y 	c #FFF298",
"z 	c #FFFF7B",
"A 	c #E08E53",
"B 	c #75595B",
"C 	c #404040",
"D 	c #6D3D43",
"E 	c #675B61",
"F 	c #A05A35",
"G 	c #F6D65A",
"H 	c #FFF589",
"I 	c #C46755",
"J 	c #847D7D",
"K 	c #EAEAEA",
"L 	c #252525",
"M 	c #920C00",
"N 	c #E6AA1A",
"O 	c #9E463E",
"P 	c #A1A7A9",
"Q 	c #696B6A",
"R 	c #494949",
"S 	c #2C2C2C",
"T 	c #981307",
"U 	c #A18888",
"V 	c #656E6E",
"W 	c #E0B1B4",
"X 	c #606060",
"Y 	c #222222",
"Z 	c #843A2A",
"` 	c #791308",
" .	c #81170E",
"..	c #EEB428",
"+.	c #FFF573",
"@.	c #FFBF67",
"#.	c #994B44",
"$.	c #8C6062",
"%.	c #1B1B1B",
"&.	c #727979",
"*.	c #FDEC63",
"=.	c #744342",
"-.	c #B05618",
";.	c #E7851F",
">.	c #963217",
",.	c #796767",
"'.	c #D7D7D7",
").	c #858A8A",
"!.	c #5A5F65",
"~.	c #481C27",
"{.	c #FFFCA5",
"].	c #EFC089",
"^.	c #AA5348",
"/.	c #978284",
"(.	c #845656",
"_.	c #6D6F6F",
":.	c #BC7532",
"<.	c #BA6613",
"[.	c #760F08",
"}.	c #D2921A",
"|.	c #FFEC6B",
"1.	c #DA997E",
"2.	c #9A3F2D",
"3.	c #E6E6E6",
"4.	c #743C38",
"5.	c #DDB98C",
"6.	c #FFE769",
"7.	c #8D1F20",
"8.	c #C8810D",
"9.	c #FFF582",
"0.	c #C67B6B",
"a.	c #7A2727",
"b.	c #EBCA6B",
"c.	c #EDC697",
"d.	c #FFEF79",
"e.	c #FAD18C",
"f.	c #CACACA",
"g.	c #47282F",
"h.	c #BE6302",
"i.	c #D6A07D",
"j.	c #FFD83F",
"k.	c #F5A03E",
"l.	c #856E6E",
"m.	c #C67412",
"n.	c #FFF47B",
"o.	c #E09D78",
"p.	c #8E5A58",
"q.	c #946664",
"r.	c #B23A0E",
"s.	c #762D1F",
"t.	c #C1ACAC",
"u.	c #CB730F",
"v.	c #FFE75A",
"w.	c #FFED84",
"x.	c #D4482C",
"y.	c #A59F9F",
"z.	c #AEA7A7",
"A.	c #EEEBEB",
"B.	c #A64B2D",
"C.	c #EE9B1D",
"D.	c #CF5E11",
"E.	c #8E5353",
"F.	c #B54807",
"                                                                ",
"                                                                ",
"                                                                ",
"              . + @   # @                                       ",
"          # + + + + + + +                                       ",
"          + $         + +               % &                     ",
"        @ +           @ @             * = -                     ",
"        + +                       ; & > , ' & )                 ",
"        + +                     * ! ~ { ] ^ { / ~               ",
"        + +                 ; & ( , ' > ] ( { _ & : <           ",
"        @ +               * [ ~ { ^ ^ } } | & 1 ~ ' / ~ 2       ",
"          + $         3 4 ( , 5 6 7 [ 8 9 0 a 9 } > 8 { b       ",
"          c + + + + + + d { ^ 6 7 e 9 e f 0 a g g 7 ( 2 h e i   ",
"              @ + + j k ^ ^ 7 & e e l 0 m h g n 2 ] h h o f p   ",
"              ' ! ' q & : [ 8 e f m r n g e 6 6 s h t u v w p   ",
"          ; & } x = 9 ! 8 9 e 0 m r n g e 6 6 h h o y z A B <   ",
"        ' ! ( ^ C m e e 0 0 0 m r n g f | b h D E F G H I J K   ",
"      | & e [ L n m 0 r r r a h g h = b h h t u v M N y O ~     ",
"      7 e P Q R n S 0 h n n g L e } b h l o y z A T u y I U     ",
"      V e W p x X r m g L Y S ! b V h Z ` F G H I  ...+.@.#.%   ",
"      $.e p p p , } 8 %.%.0 } &.h h o *.u M N y O =.-.;.>.,.'.  ",
"        p a p p p p ).g [ > !.h ~.t {.+.].T u y I ^./.(.( i     ",
"          p r p p p p | _.h h :.<.[.}.|.1. ...+.@.2._ ) 3.      ",
"          p p r p p p p h 4.5.z 6.7.8.9.0.=.-.;.>.,.'.          ",
"              p a m p p h a.b.|.c.a.}.d.e.^./.(.( f.            ",
"                p = a p h g.h.|.i.=.<.j.k.2._ % 3.              ",
"                  p p a r l.m.n.o.p.q.r.s.1 ;                   ",
"                      p i t.u.v.w.x.y.z.- <                     ",
"                          A.B.C.D.4._                           ",
"                            i E.B - 3.                          ",
"                            F.K '.                              ",
"                                                                "};
