/* XPM */
static char *[] = {
/* columns rows colors chars-per-pixel */
"32 32 162 2",
"   c #1B1B1B1B1B1B",
".  c #222222222222",
"X  c #252525252525",
"o  c #292929292929",
"O  c #2C2C2C2C2C2C",
"+  c #2E2E2E2E2E2E",
"@  c #323232323232",
"#  c #353535353535",
"$  c #373737373737",
"%  c #393939393939",
"&  c #3D3D3D3D3D3D",
"*  c #3C3C42424242",
"=  c #48481C1C2727",
"-  c #474728282F2F",
";  c #4D4D35353939",
":  c #76760F0F0808",
">  c #797913130808",
",  c #76762D2D1F1F",
"<  c #7A7A27272727",
"1  c #74743C3C3838",
"2  c #52523D3D4242",
"3  c #6D6D3D3D4343",
"4  c #404040404040",
"5  c #424242424242",
"6  c #454545454545",
"7  c #494949494949",
"8  c #4C4C4C4C4C4C",
"9  c #4F4F4F4F4F4F",
"0  c #515151515151",
"q  c #555555555555",
"w  c #575757575757",
"e  c #595959595959",
"r  c #5C5C5C5C5C5C",
"t  c #5F5F5F5F5F5F",
"y  c #5A5A5F5F6565",
"u  c #747443434242",
"i  c #757559595B5B",
"p  c #67675B5B6161",
"a  c #606060606060",
"s  c #626262626262",
"d  c #646464646464",
"f  c #65656E6E6E6E",
"g  c #686868686868",
"h  c #69696B6B6A6A",
"j  c #6A6A6A6A6A6A",
"k  c #6D6D6D6D6D6D",
"l  c #6D6D6F6F6F6F",
"z  c #6E6E6E6E6E6E",
"x  c #6C6C72727373",
"c  c #797967676767",
"v  c #717171717171",
"b  c #737373737373",
"n  c #737376767676",
"m  c #747474747474",
"M  c #777777777777",
"N  c #727279797979",
"B  c #797979797979",
"V  c #79797E7E7E7E",
"C  c #7D7D7A7A7A7A",
"Z  c #7C7C7C7C7C7C",
"A  c #818117170E0E",
"S  c #92920C0C0000",
"D  c #989813130707",
"F  c #8D8D1F1F2020",
"G  c #969632321717",
"H  c #84843A3A2A2A",
"J  c #9A9A3F3F2D2D",
"K  c #B2B23A3A0E0E",
"L  c #9E9E46463E3E",
"P  c #949452523A3A",
"I  c #B5B548480707",
"U  c #B0B056561818",
"Y  c #A6A64B4B2D2D",
"T  c #A0A05A5A3535",
"R  c #B2B256562121",
"E  c #BEBE63630202",
"W  c #BABA66661313",
"Q  c #BCBC75753232",
"!  c #848456565656",
"~  c #8E8E53535353",
"^  c #8E8E5A5A5858",
"/  c #99994B4B4444",
"(  c #85856E6E6E6E",
")  c #8C8C60606262",
"_  c #84847D7D7D7D",
"`  c #949466666464",
"'  c #AAAA53534848",
"]  c #ADAD71715959",
"[  c #CFCF5E5E1111",
"{  c #D4D448482C2C",
"}  c #CBCB73730F0F",
"|  c #C6C674741212",
" . c #C4C467675555",
".. c #C6C67B7B6B6B",
"X. c #C8C881810D0D",
"o. c #D2D292921A1A",
"O. c #E7E785851F1F",
"+. c #EEEE9B9B1D1D",
"@. c #E6E6AAAA1A1A",
"#. c #EEEEB4B42828",
"$. c #EAEAB6B63636",
"%. c #F5F5A0A03E3E",
"&. c #DADA99997E7E",
"*. c #D6D6A0A07D7D",
"=. c #E0E08E8E5353",
"-. c #E0E09D9D7878",
";. c #FFFFBFBF6767",
":. c #FFFFD8D83F3F",
">. c #F6F6D6D65A5A",
",. c #EBEBCACA6B6B",
"<. c #FFFFE7E75A5A",
"1. c #FFFFE7E76969",
"2. c #FDFDECEC6363",
"3. c #FFFFECEC6B6B",
"4. c #FFFFEFEF7979",
"5. c #FFFFF5F57373",
"6. c #FFFFF4F47B7B",
"7. c #FFFFFFFF7B7B",
"8. c #818181818181",
"9. c #868686868686",
"0. c #85858A8A8A8A",
"q. c #8C8C8D8D8D8D",
"w. c #979782828484",
"e. c #929292929292",
"r. c #979797979797",
"t. c #999999999999",
"y. c #9E9E9E9E9E9E",
"u. c #A1A188888888",
"i. c #A5A59F9F9F9F",
"p. c #A5A5A5A5A5A5",
"a. c #A1A1A7A7A9A9",
"s. c #AEAEA7A7A7A7",
"d. c #AAAAA9A9A9A9",
"f. c #ADADAEAEAEAE",
"g. c #DDDDB9B98C8C",
"h. c #C1C1ACACACAC",
"j. c #E0E0B1B1B4B4",
"k. c #EFEFC0C08989",
"l. c #EDEDC6C69797",
"z. c #FAFAD1D18C8C",
"x. c #FFFFEDED8484",
"c. c #FFFFF5F58282",
"v. c #FFFFF5F58989",
"b. c #FFFFF2F29898",
"n. c #FFFFFCFCA5A5",
"m. c #C3C3C2C2C3C3",
"M. c #CACACACACACA",
"N. c #CFCFCDCDCDCD",
"B. c #D2D2D2D2D2D2",
"V. c #D7D7D7D7D7D7",
"C. c #D9D9D9D9D9D9",
"Z. c #DDDDDDDDDDDD",
"A. c #E1E1E1E1E1E1",
"S. c #E6E6E6E6E6E6",
"D. c #EAEAEAEAEAEA",
"F. c #EEEEEBEBEBEB",
"G. c #F1F1F1F1F1F1",
"H. c WhiteSmoke",
"J. c #F8F8F8F8F8F8",
"K. c #F9F9F9F9F9F9",
"L. c #FCFCFCFCFCFC",
"P. c #FFFFFFFFFFFF",
/* pixels */
"P.P.P.P.P.P.P.P.P.P.P.P.P.P.P.P.P.P.P.P.P.P.P.P.P.P.P.P.P.P.P.P.",
"P.P.P.P.P.P.P.P.P.P.P.P.P.P.P.P.P.P.P.P.P.P.P.P.P.P.P.P.P.P.P.P.",
"P.P.P.P.P.P.P.P.P.P.P.P.P.P.P.P.P.P.P.P.P.P.P.P.P.P.P.P.P.P.P.P.",
"P.P.P.P.P.P.P.P.P.P.P.P.P.P.P.P.P.P.P.P.P.P.P.P.P.P.P.P.P.P.P.P.",
"P.P.P.P.P.P.P.P.P.P.P.P.P.P.P.P.P.P.P.P.P.P.P.P.P.P.P.P.P.P.P.P.",
"P.P.P.P.P.P.P.P.P.P.P.P.P.P.P.P.P.P.P.P.Z.j P.P.P.P.P.P.P.P.P.P.",
"P.P.P.P.P.P.P.P.P.P.P.P.P.P.P.P.P.P.K.t.s p.K.P.P.P.P.P.P.P.P.P.",
"P.P.P.P.P.P.P.P.P.P.P.P.P.P.P.P.P.B.j B f.e.j A.P.P.P.P.P.P.P.P.",
"P.P.P.P.P.P.P.P.P.P.P.P.P.P.P.P.t.r y.t.B k t.0 y.P.P.P.P.P.P.P.",
"P.P.P.P.P.P.P.P.P.P.P.P.P.P.B.j Z f.e.B m Z t.d.j d C.P.P.P.P.P.",
"P.P.P.P.P.P.P.P.P.P.P.P.P.r.r y.t.k k m m b j C y.e.0 y.w P.P.P.",
"P.P.P.P.P.P.P.P.P.P.P.B.j Z f.k P.g e 8 6 & # 6 m B 8 t.V P.P.P.",
"P.P.P.P.P.P.P.P.P.P.t.r y.t.k P.g 5 6 5 * & # o o g Z w @ 5 N.P.",
"P.P.P.P.P.P.P.P.C.d B k k k d j 5 5 ; & % @ o + w M @ @ ] * m.P.",
"P.P.P.P.P.P.K.e.r e.9.k d e 8 5 * % $ + o 5 P.P.x @ P $.R 2 m.P.",
"P.P.P.P.P.B.j m q.s 6 r 8 6 5 & % $ + o 5 P.P.@ @ ] b.7.=.i C.P.",
"P.P.P.P.e.e Z k 4 % 5 5 & & & % $ + o * b V @ 3 p T >.v. ._ D.P.",
"P.P.P.b h 5 r X + % & $ $ $ # @ o @ s V @ @ P $.R S @.b.L y.K.P.",
"P.P.P.g 5 a.h 7 + O & @ + + o X 5 m V @ ; ] b.7.=.D $.b. .u.P.P.",
"P.P.P.f 5 j.m.q.a $ % o X . O r V f @ H > T >.v. .A #.5.;./ Z.P.",
"P.P.P.) 5 m.m.m.f.m 8     & m N @ @ ] 2.$.S @.b.L u U O.G c V.P.",
"P.P.P.P.m.# m.m.m.m.0.o e B y @ = P n.5.k.D $.b. .' w.! Z N.H.P.",
"P.P.P.P.P.m.$ m.m.m.m.v l @ @ Q W : o.3.&.A #.5.;.J d.A.S.P.P.P.",
"P.P.P.P.P.m.m.$ m.m.m.m.@ 1 g.7.1.F X.c...u U O.G c V.P.P.P.P.P.",
"P.P.P.P.P.P.P.m.# % m.m.@ < ,.3.l.< o.4.z.' w.! Z M.H.P.P.P.P.P.",
"P.P.P.P.P.P.P.P.m.s # m.@ - E 3.*.u W :.%.J d.Z.S.P.P.P.P.P.P.P.",
"P.P.P.P.P.P.P.P.P.m.m.# $ ( | 6.-.^ ` K , C B.P.P.P.P.P.P.P.P.P.",
"P.P.P.P.P.P.P.P.P.P.P.m.N.h.} <.x.{ i.s.p.C.P.P.P.P.P.P.P.P.P.P.",
"P.P.P.P.P.P.P.P.P.P.P.P.P.F.Y +.[ 1 d.H.K.P.P.P.P.P.P.P.P.P.P.P.",
"P.P.P.P.P.P.P.P.P.P.P.P.P.P.N.~ i p.S.P.P.P.P.P.P.P.P.P.P.P.P.P.",
"P.P.P.P.P.P.P.P.P.P.P.P.P.P.I D.V.G.P.P.P.P.P.P.P.P.P.P.P.P.P.P.",
"P.P.P.P.P.P.P.P.P.P.P.P.P.P.P.P.P.P.P.P.P.P.P.P.P.P.P.P.P.P.P.P."
};
